<svg width="380" height="267" viewBox="0 0 380 267" fill="none" xmlns="http://www.w3.org/2000/svg">
<mask id="mask0" mask-type="alpha" maskUnits="userSpaceOnUse" x="156" y="42" width="30" height="102">
<path fill-rule="evenodd" clip-rule="evenodd" d="M171 42.334C180.488 56.9102 186 74.3112 186 92.9998C186 111.688 180.488 129.089 171 143.666C161.512 129.089 156 111.688 156 92.9998C156 74.3112 161.512 56.9102 171 42.334Z" fill="#5D24D5"/>
</mask>
<g mask="url(#mask0)">
<path fill-rule="evenodd" clip-rule="evenodd" d="M424.293 108.179L168.321 -147.794L169.735 -149.208L425.707 106.765L424.293 108.179ZM420.758 111.714L164.785 -144.258L166.199 -145.672L422.172 110.3L420.758 111.714ZM161.249 -140.723L417.222 115.25L418.636 113.836L162.664 -142.137L161.249 -140.723ZM413.687 118.785L157.714 -137.187L159.128 -138.601L415.101 117.371L413.687 118.785ZM154.178 -133.652L410.151 122.321L411.565 120.907L155.593 -135.066L154.178 -133.652ZM406.616 125.857L150.643 -130.116L152.057 -131.53L408.03 124.442L406.616 125.857ZM147.107 -126.581L403.08 129.392L404.494 127.978L148.522 -127.995L147.107 -126.581ZM399.544 132.928L143.572 -123.045L144.986 -124.459L400.959 131.513L399.544 132.928ZM140.036 -119.51L396.009 136.463L397.423 135.049L141.451 -120.924L140.036 -119.51ZM392.473 139.999L136.501 -115.974L137.915 -117.388L393.888 138.584L392.473 139.999ZM132.965 -112.438L388.938 143.534L390.352 142.12L134.379 -113.853L132.965 -112.438ZM385.402 147.07L129.43 -108.903L130.844 -110.317L386.817 145.656L385.402 147.07ZM125.894 -105.367L381.867 150.605L383.281 149.191L127.308 -106.782L125.894 -105.367ZM378.331 154.141L122.359 -101.832L123.773 -103.246L379.745 152.727L378.331 154.141ZM118.823 -98.2963L374.796 157.676L376.21 156.262L120.237 -99.7105L118.823 -98.2963ZM371.26 161.212L115.288 -94.7608L116.702 -96.175L372.674 159.798L371.26 161.212ZM111.752 -91.2253L367.725 164.747L369.139 163.333L113.166 -92.6395L111.752 -91.2253ZM364.189 168.283L108.216 -87.6897L109.631 -89.1039L365.603 166.869L364.189 168.283ZM104.681 -84.1542L360.654 171.818L362.068 170.404L106.095 -85.5684L104.681 -84.1542ZM357.118 175.354L101.145 -80.6187L102.56 -82.0329L358.532 173.94L357.118 175.354ZM97.6099 -77.0831L353.583 178.89L354.997 177.475L99.0241 -78.4973L97.6099 -77.0831ZM350.047 182.425L94.0743 -73.5476L95.4886 -74.9618L351.461 181.011L350.047 182.425ZM346.511 185.961L90.5388 -70.012L91.953 -71.4263L347.926 184.546L346.511 185.961ZM342.976 189.496L87.0033 -66.4765L88.4175 -67.8907L344.39 188.082L342.976 189.496ZM83.4677 -62.941L339.44 193.032L340.855 191.617L84.882 -64.3552L83.4677 -62.941ZM335.905 196.567L79.9322 -59.4054L81.3464 -60.8197L337.319 195.153L335.905 196.567ZM76.3967 -55.8699L332.369 200.103L333.784 198.689L77.8109 -57.2841L76.3967 -55.8699ZM328.834 203.638L72.8611 -52.3344L74.2754 -53.7486L330.248 202.224L328.834 203.638ZM69.3256 -48.7988L325.298 207.174L326.712 205.76L70.7398 -50.2131L69.3256 -48.7988ZM321.763 210.709L65.7901 -45.2633L67.2043 -46.6775L323.177 209.295L321.763 210.709ZM62.2545 -41.7278L318.227 214.245L319.641 212.831L63.6688 -43.142L62.2545 -41.7278ZM314.692 217.78L58.719 -38.1922L60.1332 -39.6065L316.106 216.366L314.692 217.78ZM55.1835 -34.6567L311.156 221.316L312.57 219.902L56.5977 -36.0709L55.1835 -34.6567ZM307.621 224.851L51.6479 -31.1212L53.0622 -32.5354L309.035 223.437L307.621 224.851ZM48.1124 -27.5856L304.085 228.387L305.499 226.973L49.5266 -28.9999L48.1124 -27.5856ZM300.55 231.923L44.5769 -24.0501L45.9911 -25.4643L301.964 230.508L300.55 231.923ZM41.0413 -20.5146L297.014 235.458L298.428 234.044L42.4556 -21.9288L41.0413 -20.5146ZM293.478 238.994L37.5058 -16.979L38.92 -18.3933L294.893 237.579L293.478 238.994ZM33.9703 -13.4435L289.943 242.529L291.357 241.115L35.3845 -14.8577L33.9703 -13.4435ZM286.407 246.065L30.4347 -9.90797L31.849 -11.3222L287.822 244.65L286.407 246.065ZM26.8992 -6.37244L282.872 249.6L284.286 248.186L28.3134 -7.78665L26.8992 -6.37244ZM279.336 253.136L23.3637 -2.83691L24.7779 -4.25112L280.751 251.722L279.336 253.136ZM19.8281 0.698627L275.801 256.671L277.215 255.257L21.2424 -0.715586L19.8281 0.698627ZM272.265 260.207L16.2926 4.23416L17.7068 2.81995L273.679 258.793L272.265 260.207Z" fill="black"/>
</g>
<circle cx="93" cy="93" r="92" transform="rotate(-180 93 93)" stroke="black" stroke-width="2"/>
<path d="M56.32 92.84C56.32 95.272 57.76 97.24 60.48 97.24C64.16 97.24 64.4 93.96 64.4 93.96H62.16C62.16 93.96 62.08 95.56 60.48 95.56C59.056 95.56 58.56 94.344 58.56 92.84C58.56 91.336 59.056 90.12 60.48 90.12C62.08 90.12 62.16 91.72 62.16 91.72H64.4C64.4 91.72 64.16 88.44 60.48 88.44C57.76 88.44 56.32 90.408 56.32 92.84ZM65.1188 97H67.3588V94.472L68.2708 93.528L70.3828 97H73.1188L69.8228 91.928L72.9588 88.68H70.3188L67.3588 92.04V88.68H65.1188V97ZM75.0444 92.84C75.0444 91.336 75.6204 90.12 77.0444 90.12C78.4684 90.12 79.0444 91.336 79.0444 92.84C79.0444 94.344 78.4684 95.56 77.0444 95.56C75.6204 95.56 75.0444 94.344 75.0444 92.84ZM72.8044 92.84C72.8044 95.272 74.3084 97.24 77.0444 97.24C79.7804 97.24 81.2844 95.272 81.2844 92.84C81.2844 90.408 79.7804 88.44 77.0444 88.44C74.3084 88.44 72.8044 90.408 72.8044 92.84ZM82.0094 99.88H84.2494V96.12H84.3294C84.3294 96.12 85.0494 97.24 86.8094 97.24C89.2094 97.24 90.4094 95.16 90.4094 92.84C90.4094 90.52 89.2094 88.44 86.8094 88.44C84.9694 88.44 84.2494 89.8 84.2494 89.8H84.1694V88.68H82.0094V99.88ZM84.1694 92.84C84.1694 91.336 84.8094 90.12 86.1694 90.12C87.5294 90.12 88.1694 91.336 88.1694 92.84C88.1694 94.344 87.5294 95.56 86.1694 95.56C84.8094 95.56 84.1694 94.344 84.1694 92.84ZM93.2944 92.84C93.2944 91.336 93.8704 90.12 95.2944 90.12C96.7184 90.12 97.2944 91.336 97.2944 92.84C97.2944 94.344 96.7184 95.56 95.2944 95.56C93.8704 95.56 93.2944 94.344 93.2944 92.84ZM91.0544 92.84C91.0544 95.272 92.5584 97.24 95.2944 97.24C98.0304 97.24 99.5344 95.272 99.5344 92.84C99.5344 90.408 98.0304 88.44 95.2944 88.44C92.5584 88.44 91.0544 90.408 91.0544 92.84ZM100.179 92.84C100.179 95.272 101.619 97.24 104.339 97.24C108.019 97.24 108.259 93.96 108.259 93.96H106.019C106.019 93.96 105.939 95.56 104.339 95.56C102.915 95.56 102.419 94.344 102.419 92.84C102.419 91.336 102.915 90.12 104.339 90.12C105.939 90.12 106.019 91.72 106.019 91.72H108.259C108.259 91.72 108.019 88.44 104.339 88.44C101.619 88.44 100.179 90.408 100.179 92.84ZM113.858 97H116.098V92.68C116.098 91 116.61 90.28 117.57 90.28C118.45 90.28 118.738 90.92 118.738 92.36V97H120.978V91.88C120.978 89.96 120.418 88.44 118.338 88.44C116.658 88.44 115.938 90.04 115.938 90.04H115.858L115.842 90.056C115.522 89.08 114.802 88.44 113.458 88.44C111.778 88.44 111.218 90.04 111.218 90.04H111.138V88.68H108.978V97H111.218V92.68C111.218 91 111.73 90.28 112.69 90.28C113.57 90.28 113.858 90.92 113.858 92.36V97ZM121.775 97H125.375C127.695 97 128.975 95.96 128.975 94.36C128.975 92.76 127.695 91.72 125.375 91.72H124.015V88.68H121.775V97ZM125.055 93.32C126.255 93.32 126.735 93.64 126.735 94.36C126.735 95.08 126.255 95.4 125.055 95.4H124.015V93.32H125.055Z" fill="black"/>
<path d="M214.4 97H218.64C220.88 97 221.92 96.2 221.92 94.6C221.92 93 220.4 92.68 220.4 92.68V92.6C220.4 92.6 221.68 92.28 221.68 90.92C221.68 89.4 220.56 88.68 218.4 88.68H214.4V97ZM218.4 93.48C219.2 93.48 219.68 93.8 219.68 94.44C219.68 95.08 219.28 95.4 218.56 95.4H216.64V93.48H218.4ZM216.64 92.04V90.28H218.4C219.12 90.28 219.44 90.6 219.44 91.16C219.44 91.72 219.04 92.04 218.24 92.04H216.64ZM227.916 97H230.156V88.68H227.916V91.96H224.796V88.68H222.556V97H224.796V93.72H227.916V97ZM238.723 88.68H236.483V93C236.483 94.68 235.843 95.4 234.643 95.4C233.603 95.4 233.203 94.76 233.203 93.32V88.68H230.963V93.8C230.963 95.72 231.603 97.24 233.923 97.24C235.763 97.24 236.483 95.64 236.483 95.64H236.563V97H238.723V88.68ZM249.605 88.68H246.245L244.565 94.44L242.885 88.68H239.525V97H241.605V91.16H241.685L243.525 97H245.605L247.445 91.16H247.525V97H249.605V88.68ZM252.72 91.24C252.752 90.344 253.28 89.96 254.24 89.96C255.12 89.96 255.6 90.344 255.6 91C255.6 91.928 254.288 92.04 252.896 92.392C251.52 92.744 250.24 93.448 250.24 95C250.24 96.536 251.36 97.24 252.88 97.24C255.008 97.24 255.52 95.4 255.52 95.4H255.6V97H257.84V91.32C257.84 89.16 256.24 88.44 254.24 88.44C252.32 88.44 250.608 89.112 250.48 91.24H252.72ZM255.6 92.808C255.6 94.04 255.2 95.8 253.68 95.8C252.96 95.8 252.512 95.4 252.512 94.76C252.512 94.024 253.12 93.656 253.84 93.48C254.48 93.32 255.232 93.144 255.6 92.808ZM263.994 97H266.234V88.68H263.994V91.96H260.874V88.68H258.634V97H260.874V93.72H263.994V97ZM274.801 88.68H272.561V93C272.561 94.68 271.921 95.4 270.721 95.4C269.681 95.4 269.281 94.76 269.281 93.32V88.68H267.041V93.8C267.041 95.72 267.681 97.24 270.001 97.24C271.841 97.24 272.561 95.64 272.561 95.64H272.641V97H274.801V88.68ZM275.523 92.84C275.523 95.272 276.883 97.24 279.683 97.24C283.123 97.24 283.603 94.28 283.603 94.28H281.363C281.363 94.28 281.123 95.56 279.763 95.56C278.419 95.56 277.875 94.6 277.779 93.32H283.667C283.667 93.32 283.683 93.032 283.683 92.84C283.683 90.408 282.419 88.44 279.683 88.44C276.947 88.44 275.523 90.408 275.523 92.84ZM279.683 90.12C280.787 90.12 281.235 90.856 281.379 91.88H277.843C278.035 90.856 278.579 90.12 279.683 90.12Z" fill="black"/>
<path d="M266.386 266.506C265.99 266.506 265.642 266.404 265.342 266.2C265.054 265.996 264.832 265.738 264.676 265.426C264.52 265.126 264.442 264.826 264.442 264.526C264.442 263.818 264.628 263.152 265 262.528C265.372 261.916 265.906 261.316 266.602 260.728C266.866 260.488 267.472 260.014 268.42 259.306L269.302 258.64L269.392 258.226L269.518 257.668C269.578 257.38 269.62 257.188 269.644 257.092L269.752 256.606C269.536 257.266 269.176 257.854 268.672 258.37C268.18 258.886 267.706 259.144 267.25 259.144C266.77 259.144 266.386 258.964 266.098 258.604C265.81 258.232 265.666 257.728 265.666 257.092C265.666 256.084 265.954 254.494 266.53 252.322C266.818 251.242 266.962 250.66 266.962 250.576L266.926 250.36C266.914 250.276 266.992 250.174 267.16 250.054C267.328 249.934 267.466 249.874 267.574 249.874C267.814 249.874 267.934 249.994 267.934 250.234C267.934 250.474 267.712 251.482 267.268 253.258C266.824 255.034 266.602 256.24 266.602 256.876C266.602 257.5 266.68 257.89 266.836 258.046C266.98 258.202 267.16 258.28 267.376 258.28C267.832 258.28 268.318 257.896 268.834 257.128C269.242 256.528 269.602 255.724 269.914 254.716C270.238 253.696 270.538 252.622 270.814 251.494L270.904 251.134C271.036 250.594 271.15 250.258 271.246 250.126C271.342 249.982 271.474 249.91 271.642 249.91C271.774 249.91 271.864 249.946 271.912 250.018C271.972 250.078 271.99 250.144 271.966 250.216C271.786 251.104 271.492 252.406 271.084 254.122C270.712 255.682 270.448 256.936 270.292 257.884C270.256 257.908 270.466 257.716 270.922 257.308C271.162 257.068 271.342 256.9 271.462 256.804C271.582 256.708 271.696 256.66 271.804 256.66C272.008 256.66 272.11 256.762 272.11 256.966C272.11 257.11 272.062 257.23 271.966 257.326C271.486 257.758 270.862 258.274 270.094 258.874C269.494 262.018 268.954 264.064 268.474 265.012C268.21 265.54 267.82 265.96 267.304 266.272C267.04 266.428 266.734 266.506 266.386 266.506ZM266.386 265.642C266.806 265.642 267.184 265.372 267.52 264.832C267.748 264.472 267.994 263.896 268.258 263.104L268.492 262.222L268.672 261.52L269.086 259.684L268.78 259.954C268.36 260.314 267.946 260.656 267.538 260.98C266.086 262.156 265.36 263.278 265.36 264.346C265.36 264.838 265.522 265.216 265.846 265.48C265.966 265.588 266.146 265.642 266.386 265.642Z" fill="black"/>
<path d="M274.953 259.216C274.377 259.216 273.921 259.006 273.585 258.586C273.261 258.154 273.099 257.638 273.099 257.038C273.099 255.982 273.291 254.89 273.675 253.762C274.071 252.634 274.587 251.692 275.223 250.936C275.859 250.18 276.531 249.802 277.239 249.802C277.755 249.802 278.091 249.988 278.247 250.36C278.283 250.42 278.313 250.486 278.337 250.558C278.361 250.618 278.385 250.678 278.409 250.738C278.469 250.906 278.529 251.002 278.589 251.026C278.637 251.146 278.661 251.236 278.661 251.296C278.661 251.404 278.607 251.506 278.499 251.602C278.403 251.698 278.295 251.746 278.175 251.746C277.923 251.746 277.761 251.56 277.689 251.188C277.617 250.816 277.419 250.63 277.095 250.63C276.663 250.63 276.207 250.966 275.727 251.638C275.247 252.298 274.833 253.138 274.485 254.158C274.149 255.118 273.981 255.976 273.981 256.732C273.981 257.8 274.371 258.334 275.151 258.334C275.547 258.334 275.913 258.148 276.249 257.776C276.285 257.728 276.351 257.65 276.447 257.542C276.543 257.422 276.633 257.338 276.717 257.29C276.801 257.23 276.879 257.2 276.951 257.2C277.179 257.2 277.293 257.302 277.293 257.506C277.293 257.746 277.179 258.004 276.951 258.28C276.723 258.544 276.429 258.766 276.069 258.946C275.709 259.126 275.337 259.216 274.953 259.216Z" fill="black"/>
<path d="M284.256 259.108C284.064 259.108 283.926 259.072 283.842 259C283.758 258.928 283.728 258.802 283.752 258.622L284.634 253.366C284.742 252.718 284.796 252.22 284.796 251.872C284.796 251.296 284.634 251.008 284.31 251.008C284.058 251.008 283.686 251.41 283.194 252.214C282.714 253.006 282.234 253.906 281.754 254.914C281.274 255.91 280.95 256.648 280.782 257.128L280.53 257.722C280.422 258.022 280.344 258.214 280.296 258.298C280.08 258.766 279.864 259 279.648 259C279.528 259 279.45 258.976 279.414 258.928C279.39 258.868 279.378 258.748 279.378 258.568C279.378 258.388 279.612 257.002 280.08 254.41C280.56 251.818 280.836 250.456 280.908 250.324C280.98 250.18 281.04 250.09 281.088 250.054C281.148 250.018 281.256 250 281.412 250C281.556 250 281.67 250.054 281.754 250.162C281.85 250.27 281.898 250.378 281.898 250.486C281.898 250.606 281.886 250.696 281.862 250.756C281.862 250.78 281.802 250.978 281.682 251.35C281.394 252.13 281.124 253.264 280.872 254.752L280.692 255.814C280.896 255.382 281.046 255.046 281.142 254.806C281.478 254.026 281.784 253.342 282.06 252.754C282.348 252.166 282.666 251.62 283.014 251.116C283.542 250.36 284.034 249.982 284.49 249.982C285.294 249.982 285.696 250.63 285.696 251.926C285.696 252.322 285.648 252.796 285.552 253.348C285.468 253.9 285.324 254.668 285.12 255.652L285.03 256.12C284.874 256.984 284.784 257.698 284.76 258.262L284.652 258.748C284.652 258.892 284.628 258.988 284.58 259.036C284.544 259.084 284.436 259.108 284.256 259.108Z" fill="black"/>
<path d="M289.085 259.18C288.701 259.18 288.401 259.12 288.185 259C287.969 258.868 287.795 258.67 287.663 258.406C287.411 257.938 287.285 257.374 287.285 256.714C287.285 255.562 287.459 254.47 287.807 253.438C288.155 252.394 288.629 251.518 289.229 250.81C289.805 250.138 290.435 249.802 291.119 249.802C291.479 249.802 291.761 249.952 291.965 250.252C292.181 250.54 292.289 250.894 292.289 251.314C292.289 252.046 292.097 252.682 291.713 253.222C291.341 253.762 290.837 254.212 290.201 254.572C289.649 254.896 288.977 255.22 288.185 255.544L288.149 256.84C288.149 257.848 288.455 258.352 289.067 258.352C289.343 258.352 289.631 258.286 289.931 258.154C290.231 258.01 290.543 257.842 290.867 257.65C291.023 257.566 291.149 257.524 291.245 257.524C291.449 257.524 291.551 257.632 291.551 257.848C291.551 258.004 291.401 258.19 291.101 258.406C290.813 258.622 290.471 258.808 290.075 258.964C289.679 259.108 289.349 259.18 289.085 259.18ZM288.329 254.68C288.437 254.62 288.677 254.494 289.049 254.302C289.217 254.23 289.457 254.11 289.769 253.942C290.333 253.63 290.753 253.27 291.029 252.862C291.317 252.454 291.461 251.95 291.461 251.35C291.461 250.882 291.263 250.648 290.867 250.648C290.519 250.648 290.111 250.966 289.643 251.602C289.151 252.238 288.755 253.072 288.455 254.104C288.371 254.392 288.329 254.584 288.329 254.68Z" fill="black"/>
<path d="M297.117 259.144C296.985 259.144 296.889 259.048 296.829 258.856C296.817 258.7 296.757 258.508 296.649 258.28C296.553 258.136 296.445 257.896 296.325 257.56C296.277 257.38 296.133 257.008 295.893 256.444C295.581 255.7 295.395 255.244 295.335 255.076L292.869 258.856C292.761 259.036 292.593 259.126 292.365 259.126C292.137 259.126 292.023 259.03 292.023 258.838C292.023 258.73 292.077 258.586 292.185 258.406L292.689 257.614L293.265 256.696C293.973 255.58 294.525 254.728 294.921 254.14L294.813 253.87C294.693 253.522 294.621 253.312 294.597 253.24C294.441 252.772 294.309 252.394 294.201 252.106L294.057 251.674C293.973 251.434 293.925 251.29 293.913 251.242L293.751 250.774C293.739 250.714 293.721 250.654 293.697 250.594C293.673 250.522 293.655 250.456 293.643 250.396C293.595 250.3 293.571 250.204 293.571 250.108C293.571 250.036 293.619 249.958 293.715 249.874C293.811 249.778 293.925 249.73 294.057 249.73C294.285 249.73 294.465 249.922 294.597 250.306C294.669 250.522 294.717 250.684 294.741 250.792C294.789 251.08 294.879 251.392 295.011 251.728C295.155 252.16 295.275 252.484 295.371 252.7C295.407 252.82 295.473 253 295.569 253.24C295.857 252.892 296.223 252.394 296.667 251.746L297.117 251.098C297.417 250.678 297.579 250.456 297.603 250.432C297.783 250.228 297.951 250.084 298.107 250C298.203 249.964 298.287 249.946 298.359 249.946C298.551 249.982 298.647 250.078 298.647 250.234C298.647 250.378 298.617 250.51 298.557 250.63C298.485 250.774 298.329 250.996 298.089 251.296C297.993 251.404 297.729 251.752 297.297 252.34C297.297 252.34 297.225 252.448 297.081 252.664C296.697 253.24 296.325 253.75 295.965 254.194C296.661 255.886 297.045 256.858 297.117 257.11C297.225 257.458 297.345 257.752 297.477 257.992C297.609 258.22 297.675 258.454 297.675 258.694C297.651 258.826 297.585 258.934 297.477 259.018C297.381 259.102 297.261 259.144 297.117 259.144Z" fill="black"/>
<path d="M305.605 259.09C305.065 259.09 304.639 258.922 304.327 258.586C304.027 258.25 303.877 257.86 303.877 257.416C303.877 257.02 303.943 256.636 304.075 256.264C304.207 255.88 304.399 255.478 304.651 255.058C304.879 254.674 305.125 254.308 305.389 253.96C305.749 253.48 306.007 253.12 306.163 252.88C306.727 252.04 307.045 251.314 307.117 250.702C307.021 250.486 306.853 250.378 306.613 250.378C306.361 250.378 306.073 250.504 305.749 250.756C305.473 250.984 305.323 251.164 305.299 251.296C305.287 251.404 305.227 251.512 305.119 251.62C305.023 251.728 304.933 251.782 304.849 251.782C304.609 251.782 304.489 251.674 304.489 251.458C304.489 251.158 304.615 250.864 304.867 250.576C305.119 250.276 305.431 250.03 305.803 249.838C306.175 249.646 306.535 249.55 306.883 249.55C307.591 249.55 307.945 249.97 307.945 250.81C307.945 251.494 307.405 252.556 306.325 253.996C305.233 255.448 304.687 256.468 304.687 257.056C304.687 257.476 304.777 257.782 304.957 257.974C305.137 258.154 305.353 258.244 305.605 258.244C305.833 258.244 306.025 258.202 306.181 258.118C306.493 257.962 306.859 257.674 307.279 257.254C307.711 256.822 308.029 256.606 308.233 256.606C308.437 256.606 308.539 256.708 308.539 256.912C308.539 257.044 308.491 257.164 308.395 257.272C307.843 257.896 307.369 258.358 306.973 258.658C306.577 258.946 306.121 259.09 305.605 259.09Z" fill="black"/>
<path d="M309.966 250.936C309.822 250.936 309.696 250.894 309.588 250.81C309.492 250.726 309.444 250.636 309.444 250.54C309.444 250.456 309.486 250.384 309.57 250.324C310.578 249.892 311.838 249.676 313.35 249.676C313.998 249.676 314.532 249.7 314.952 249.748C315.36 249.808 315.714 249.85 316.014 249.874C316.266 249.91 316.416 249.952 316.464 250C316.512 250.06 316.536 250.144 316.536 250.252C316.536 250.36 316.476 250.468 316.356 250.576C316.236 250.672 316.086 250.72 315.906 250.72C315.702 250.72 315.36 250.666 314.88 250.558C314.376 250.462 313.896 250.414 313.44 250.414C312.216 250.414 311.106 250.582 310.11 250.918L310.038 250.936H309.966ZM310.902 259.27C310.698 259.27 310.596 259.15 310.596 258.91C310.596 258.79 310.638 258.676 310.722 258.568C310.83 258.28 310.938 257.89 311.046 257.398C311.19 256.786 311.286 256.408 311.334 256.264L311.514 255.346L311.712 254.194C311.916 253.018 312.108 252.172 312.288 251.656C312.48 251.14 312.738 250.882 313.062 250.882C313.182 250.882 313.278 250.96 313.35 251.116L313.584 251.728C313.584 251.98 313.494 252.172 313.314 252.304C313.266 252.34 313.206 252.358 313.134 252.358C313.062 252.358 312.996 252.322 312.936 252.25C312.66 253.27 312.492 254.014 312.432 254.482C312.312 255.262 312.21 255.862 312.126 256.282C312.078 256.414 312.024 256.606 311.964 256.858L311.802 257.452C311.49 258.664 311.19 259.27 310.902 259.27Z" fill="black"/>
<path d="M317.773 259.18C317.389 259.18 317.089 259.12 316.873 259C316.657 258.868 316.483 258.67 316.351 258.406C316.099 257.938 315.973 257.374 315.973 256.714C315.973 255.562 316.147 254.47 316.495 253.438C316.843 252.394 317.317 251.518 317.917 250.81C318.493 250.138 319.123 249.802 319.807 249.802C320.167 249.802 320.449 249.952 320.653 250.252C320.869 250.54 320.977 250.894 320.977 251.314C320.977 252.046 320.785 252.682 320.401 253.222C320.029 253.762 319.525 254.212 318.889 254.572C318.337 254.896 317.665 255.22 316.873 255.544L316.837 256.84C316.837 257.848 317.143 258.352 317.755 258.352C318.031 258.352 318.319 258.286 318.619 258.154C318.919 258.01 319.231 257.842 319.555 257.65C319.711 257.566 319.837 257.524 319.933 257.524C320.137 257.524 320.239 257.632 320.239 257.848C320.239 258.004 320.089 258.19 319.789 258.406C319.501 258.622 319.159 258.808 318.763 258.964C318.367 259.108 318.037 259.18 317.773 259.18ZM317.017 254.68C317.125 254.62 317.365 254.494 317.737 254.302C317.905 254.23 318.145 254.11 318.457 253.942C319.021 253.63 319.441 253.27 319.717 252.862C320.005 252.454 320.149 251.95 320.149 251.35C320.149 250.882 319.951 250.648 319.555 250.648C319.207 250.648 318.799 250.966 318.331 251.602C317.839 252.238 317.443 253.072 317.143 254.104C317.059 254.392 317.017 254.584 317.017 254.68Z" fill="black"/>
<path d="M324.365 254.302C323.849 254.302 323.483 254.26 323.267 254.176L322.763 254.158L322.421 254.212C322.409 254.212 322.397 254.212 322.385 254.212C322.385 254.2 322.385 254.194 322.385 254.194H322.331C322.115 254.194 322.007 254.08 322.007 253.852C322.007 253.672 322.109 253.534 322.313 253.438C322.517 253.33 322.775 253.276 323.087 253.276C323.339 253.276 323.717 253.306 324.221 253.366C324.737 253.426 325.235 253.456 325.715 253.456C326.243 253.456 326.843 253.366 327.515 253.186H327.623C327.731 253.186 327.809 253.216 327.857 253.276C327.917 253.324 327.947 253.384 327.947 253.456C327.947 254.02 326.753 254.302 324.365 254.302Z" fill="black"/>
<path d="M329.671 250.936C329.527 250.936 329.401 250.894 329.293 250.81C329.197 250.726 329.149 250.636 329.149 250.54C329.149 250.456 329.191 250.384 329.275 250.324C330.283 249.892 331.543 249.676 333.055 249.676C333.703 249.676 334.237 249.7 334.657 249.748C335.065 249.808 335.419 249.85 335.719 249.874C335.971 249.91 336.121 249.952 336.169 250C336.217 250.06 336.241 250.144 336.241 250.252C336.241 250.36 336.181 250.468 336.061 250.576C335.941 250.672 335.791 250.72 335.611 250.72C335.407 250.72 335.065 250.666 334.585 250.558C334.081 250.462 333.601 250.414 333.145 250.414C331.921 250.414 330.811 250.582 329.815 250.918L329.743 250.936H329.671ZM330.607 259.27C330.403 259.27 330.301 259.15 330.301 258.91C330.301 258.79 330.343 258.676 330.427 258.568C330.535 258.28 330.643 257.89 330.751 257.398C330.895 256.786 330.991 256.408 331.039 256.264L331.219 255.346L331.417 254.194C331.621 253.018 331.813 252.172 331.993 251.656C332.185 251.14 332.443 250.882 332.767 250.882C332.887 250.882 332.983 250.96 333.055 251.116L333.289 251.728C333.289 251.98 333.199 252.172 333.019 252.304C332.971 252.34 332.911 252.358 332.839 252.358C332.767 252.358 332.701 252.322 332.641 252.25C332.365 253.27 332.197 254.014 332.137 254.482C332.017 255.262 331.915 255.862 331.831 256.282C331.783 256.414 331.729 256.606 331.669 256.858L331.507 257.452C331.195 258.664 330.895 259.27 330.607 259.27Z" fill="black"/>
<path d="M337.478 259.162C336.854 259.162 336.386 258.916 336.074 258.424C335.774 257.932 335.624 257.344 335.624 256.66C335.624 255.568 335.804 254.512 336.164 253.492C336.536 252.46 337.04 251.608 337.676 250.936C338.288 250.252 338.978 249.91 339.746 249.91C340.85 249.91 341.402 250.75 341.402 252.43C341.402 253.27 341.264 254.128 340.988 255.004C340.712 255.88 340.352 256.66 339.908 257.344C339.476 258.028 339.026 258.52 338.558 258.82C338.198 259.048 337.838 259.162 337.478 259.162ZM337.622 258.352C337.994 258.352 338.408 258.028 338.864 257.38C339.332 256.732 339.722 255.928 340.034 254.968C340.358 254.008 340.52 253.192 340.52 252.52C340.52 251.824 340.478 251.392 340.394 251.224C340.322 251.044 340.232 250.918 340.124 250.846C340.016 250.774 339.848 250.738 339.62 250.738C339.368 250.738 339.104 250.834 338.828 251.026C338.276 251.374 337.796 251.974 337.388 252.826C336.752 254.098 336.434 255.334 336.434 256.534C336.434 257.35 336.668 257.914 337.136 258.226C337.304 258.31 337.466 258.352 337.622 258.352Z" fill="black"/>
<path d="M348.109 266.38C347.365 266.38 346.813 266.164 346.453 265.732C346.093 265.3 345.913 264.742 345.913 264.058C345.913 263.422 346.099 262.804 346.471 262.204C346.843 261.604 347.371 261.004 348.055 260.404C348.739 259.804 349.651 259.084 350.791 258.244C350.839 257.572 350.863 257.128 350.863 256.912C350.863 256.468 350.797 256.12 350.665 255.868C350.533 255.604 350.293 255.466 349.945 255.454L349.693 255.634C348.841 256.234 348.199 256.534 347.767 256.534C347.611 256.534 347.497 256.498 347.425 256.426C347.353 256.354 347.317 256.264 347.317 256.156C347.317 256.06 347.389 255.934 347.533 255.778C347.725 255.574 348.013 255.364 348.397 255.148C348.781 254.92 349.219 254.764 349.711 254.68C350.431 254.044 350.935 253.51 351.223 253.078C351.523 252.634 351.673 252.106 351.673 251.494C351.673 251.206 351.601 250.996 351.457 250.864C351.313 250.732 351.055 250.666 350.683 250.666C350.275 250.666 349.927 250.708 349.639 250.792C349.363 250.876 349.027 251.062 348.631 251.35C348.223 251.65 347.953 251.8 347.821 251.8C347.605 251.8 347.497 251.674 347.497 251.422C347.497 251.302 347.593 251.146 347.785 250.954C347.989 250.762 348.241 250.582 348.541 250.414C349.285 250.03 349.999 249.838 350.683 249.838C351.343 249.838 351.805 249.97 352.069 250.234C352.333 250.498 352.465 250.906 352.465 251.458C352.465 252.658 351.907 253.762 350.791 254.77C351.391 255.034 351.691 255.742 351.691 256.894L351.655 257.632L353.023 256.66C353.119 256.612 353.203 256.588 353.275 256.588C353.479 256.588 353.581 256.696 353.581 256.912C353.581 257.02 353.533 257.14 353.437 257.272C353.185 257.44 353.029 257.542 352.969 257.578L351.565 258.568C351.373 260.008 351.103 261.358 350.755 262.618C350.419 263.89 350.131 264.73 349.891 265.138C349.651 265.546 349.399 265.852 349.135 266.056C348.871 266.272 348.529 266.38 348.109 266.38ZM347.929 265.606C348.289 265.606 348.583 265.474 348.811 265.21C349.195 264.754 349.633 263.59 350.125 261.718C350.365 260.878 350.545 260.044 350.665 259.216C349.189 260.344 348.091 261.346 347.371 262.222C346.915 262.786 346.687 263.344 346.687 263.896C346.687 264.436 346.801 264.856 347.029 265.156C347.257 265.456 347.557 265.606 347.929 265.606Z" fill="black"/>
<path d="M355.444 266.38C354.868 266.38 354.382 266.182 353.986 265.786C353.602 265.402 353.41 264.91 353.41 264.31C353.41 263.758 353.536 263.23 353.788 262.726C354.052 262.234 354.43 261.724 354.922 261.196C355.342 260.74 355.846 260.266 356.434 259.774L358.126 258.37C358.21 258.07 358.282 257.752 358.342 257.416C358.474 256.888 358.576 256.456 358.648 256.12C358.192 257.548 357.604 258.484 356.884 258.928C356.656 259.072 356.434 259.144 356.218 259.144C355.798 259.144 355.45 258.976 355.174 258.64C354.91 258.304 354.778 257.86 354.778 257.308C354.778 256.264 354.976 255.172 355.372 254.032C355.768 252.88 356.296 251.896 356.956 251.08C357.64 250.252 358.384 249.838 359.188 249.838C359.572 249.838 359.938 249.934 360.286 250.126C360.358 250.09 360.436 250.072 360.52 250.072C360.724 250.072 360.826 250.168 360.826 250.36C360.826 250.564 360.79 250.756 360.718 250.936C360.382 251.812 359.818 254.092 359.026 257.776C359.218 257.656 359.44 257.482 359.692 257.254C359.752 257.206 359.86 257.116 360.016 256.984C360.172 256.84 360.298 256.738 360.394 256.678C360.49 256.618 360.574 256.588 360.646 256.588C360.85 256.588 360.952 256.69 360.952 256.894C360.952 257.05 360.91 257.17 360.826 257.254C360.082 257.818 359.446 258.286 358.918 258.658L358.63 260.35L358.54 260.8C358.396 261.556 358.27 262.186 358.162 262.69C358.054 263.206 357.922 263.698 357.766 264.166C357.538 264.826 357.226 265.36 356.83 265.768C356.446 266.176 355.984 266.38 355.444 266.38ZM356.272 258.28C356.512 258.28 356.788 258.118 357.1 257.794C357.412 257.458 357.712 257.026 358 256.498C358.3 255.958 358.54 255.394 358.72 254.806C358.996 253.954 359.23 253.168 359.422 252.448C359.542 252.028 359.692 251.476 359.872 250.792C359.704 250.636 359.476 250.558 359.188 250.558C358.672 250.558 358.132 250.9 357.568 251.584C357.016 252.268 356.548 253.132 356.164 254.176C355.792 255.208 355.606 256.15 355.606 257.002C355.606 257.854 355.828 258.28 356.272 258.28ZM355.282 265.48C355.534 265.48 355.762 265.42 355.966 265.3C356.17 265.192 356.362 265 356.542 264.724C356.722 264.436 356.902 264.034 357.082 263.518C357.262 263.002 357.406 262.474 357.514 261.934C357.61 261.526 357.688 261.154 357.748 260.818L357.82 260.422C357.832 260.326 357.85 260.224 357.874 260.116C357.898 260.008 357.916 259.894 357.928 259.774L357.982 259.342C356.806 260.314 355.894 261.196 355.246 261.988C354.61 262.78 354.292 263.488 354.292 264.112C354.292 264.772 354.436 265.192 354.724 265.372C354.844 265.444 355.03 265.48 355.282 265.48Z" fill="black"/>
<path d="M364.425 259.18C364.041 259.18 363.741 259.12 363.525 259C363.309 258.868 363.135 258.67 363.003 258.406C362.751 257.938 362.625 257.374 362.625 256.714C362.625 255.562 362.799 254.47 363.147 253.438C363.495 252.394 363.969 251.518 364.569 250.81C365.145 250.138 365.775 249.802 366.459 249.802C366.819 249.802 367.101 249.952 367.305 250.252C367.521 250.54 367.629 250.894 367.629 251.314C367.629 252.046 367.437 252.682 367.053 253.222C366.681 253.762 366.177 254.212 365.541 254.572C364.989 254.896 364.317 255.22 363.525 255.544L363.489 256.84C363.489 257.848 363.795 258.352 364.407 258.352C364.683 258.352 364.971 258.286 365.271 258.154C365.571 258.01 365.883 257.842 366.207 257.65C366.363 257.566 366.489 257.524 366.585 257.524C366.789 257.524 366.891 257.632 366.891 257.848C366.891 258.004 366.741 258.19 366.441 258.406C366.153 258.622 365.811 258.808 365.415 258.964C365.019 259.108 364.689 259.18 364.425 259.18ZM363.669 254.68C363.777 254.62 364.017 254.494 364.389 254.302C364.557 254.23 364.797 254.11 365.109 253.942C365.673 253.63 366.093 253.27 366.369 252.862C366.657 252.454 366.801 251.95 366.801 251.35C366.801 250.882 366.603 250.648 366.207 250.648C365.859 250.648 365.451 250.966 364.983 251.602C364.491 252.238 364.095 253.072 363.795 254.104C363.711 254.392 363.669 254.584 363.669 254.68Z" fill="black"/>
<path d="M370.261 259.216C369.685 259.216 369.229 259.006 368.893 258.586C368.569 258.154 368.407 257.638 368.407 257.038C368.407 255.982 368.599 254.89 368.983 253.762C369.379 252.634 369.895 251.692 370.531 250.936C371.167 250.18 371.839 249.802 372.547 249.802C373.063 249.802 373.399 249.988 373.555 250.36C373.591 250.42 373.621 250.486 373.645 250.558C373.669 250.618 373.693 250.678 373.717 250.738C373.777 250.906 373.837 251.002 373.897 251.026C373.945 251.146 373.969 251.236 373.969 251.296C373.969 251.404 373.915 251.506 373.807 251.602C373.711 251.698 373.603 251.746 373.483 251.746C373.231 251.746 373.069 251.56 372.997 251.188C372.925 250.816 372.727 250.63 372.403 250.63C371.971 250.63 371.515 250.966 371.035 251.638C370.555 252.298 370.141 253.138 369.793 254.158C369.457 255.118 369.289 255.976 369.289 256.732C369.289 257.8 369.679 258.334 370.459 258.334C370.855 258.334 371.221 258.148 371.557 257.776C371.593 257.728 371.659 257.65 371.755 257.542C371.851 257.422 371.941 257.338 372.025 257.29C372.109 257.23 372.187 257.2 372.259 257.2C372.487 257.2 372.601 257.302 372.601 257.506C372.601 257.746 372.487 258.004 372.259 258.28C372.031 258.544 371.737 258.766 371.377 258.946C371.017 259.126 370.645 259.216 370.261 259.216Z" fill="black"/>
<path d="M376.145 259.27C375.113 259.27 374.597 258.568 374.597 257.164C374.597 256.648 374.675 256.018 374.831 255.274L375.155 253.726L375.857 250.306C375.905 250.21 375.983 250.132 376.091 250.072C376.199 250 376.301 249.964 376.397 249.964C376.481 249.964 376.565 250.018 376.649 250.126C376.733 250.234 376.775 250.348 376.775 250.468L376.199 252.718L375.641 255.076C375.449 255.94 375.353 256.6 375.353 257.056C375.353 257.56 375.425 257.92 375.569 258.136C375.713 258.34 375.947 258.442 376.271 258.442C376.775 258.442 377.189 258.274 377.513 257.938C377.837 257.602 378.071 257.158 378.215 256.606C378.347 256.078 378.413 255.616 378.413 255.22C378.413 254.188 378.161 253.672 377.657 253.672C377.333 253.672 377.039 253.93 376.775 254.446C376.631 254.734 376.505 254.944 376.397 255.076C376.301 255.172 376.217 255.22 376.145 255.22C375.929 255.22 375.821 255.118 375.821 254.914C375.821 254.794 375.941 254.548 376.181 254.176C376.433 253.792 376.637 253.51 376.793 253.33C377.129 252.994 377.441 252.826 377.729 252.826C378.209 252.826 378.575 253.054 378.827 253.51C379.079 253.966 379.205 254.524 379.205 255.184C379.205 255.94 379.067 256.63 378.791 257.254C378.527 257.878 378.161 258.37 377.693 258.73C377.225 259.09 376.709 259.27 376.145 259.27Z" fill="black"/>
<circle cx="249" cy="93" r="92" transform="rotate(-180 249 93)" stroke="black" stroke-width="2"/>
<path fill-rule="evenodd" clip-rule="evenodd" d="M170.123 177.274C171.769 174.02 171.877 170.752 171.494 168.116C171.18 166.882 170.882 165.667 170.598 164.472C170.419 163.954 170.247 163.523 170.108 163.195L171.03 162.807C171.062 162.883 171.096 162.965 171.132 163.052L171.487 162.969L171.496 163.009C171.803 164.321 172.368 166.736 173.48 169.067C174.607 171.43 176.255 173.619 178.676 174.532L178.324 175.468C175.998 174.591 174.36 172.718 173.201 170.692C176.873 184.354 182.571 199.872 192.969 214.079C205.131 230.697 223.741 245.547 253.131 253.517L252.869 254.482C223.259 246.452 204.457 231.469 192.162 214.67C182.001 200.787 176.298 185.68 172.596 172.277C172.422 174.024 171.952 175.875 171.015 177.725L170.123 177.274Z" fill="black"/>
</svg>
