<svg width="17" height="17" viewBox="0 0 17 17" fill="none" xmlns="http://www.w3.org/2000/svg">
<mask id="path-1-inside-1" fill="white">
<path fill-rule="evenodd" clip-rule="evenodd" d="M10.9803 0.313477L5.64699 0.313477V5.64681L0.313662 5.64681L0.31366 10.9801L5.64699 10.9801V16.3135H10.9803V10.9801L16.3137 10.9801V5.64681L10.9803 5.64681V0.313477Z"/>
</mask>
<path d="M5.64699 0.313477V-0.686523L4.64699 -0.686523V0.313477L5.64699 0.313477ZM10.9803 0.313477L11.9803 0.313477V-0.686523L10.9803 -0.686523V0.313477ZM5.64699 5.64681V6.64681H6.64699V5.64681H5.64699ZM0.313662 5.64681L0.313662 4.64681H-0.686338L-0.686338 5.64681L0.313662 5.64681ZM0.31366 10.9801H-0.68634L-0.686341 11.9801H0.313659L0.31366 10.9801ZM5.64699 10.9801H6.64699V9.98015H5.64699V10.9801ZM5.64699 16.3135H4.64699V17.3135H5.64699V16.3135ZM10.9803 16.3135L10.9803 17.3135H11.9803L11.9803 16.3135H10.9803ZM10.9803 10.9801V9.98015H9.98033V10.9801H10.9803ZM16.3137 10.9801V11.9801H17.3137V10.9801H16.3137ZM16.3137 5.64681H17.3137V4.64681H16.3137V5.64681ZM10.9803 5.64681H9.98033V6.64681H10.9803V5.64681ZM5.64699 1.31348L10.9803 1.31348V-0.686523L5.64699 -0.686523V1.31348ZM6.64699 5.64681V0.313477L4.64699 0.313477V5.64681H6.64699ZM0.313661 6.64681L5.64699 6.64681V4.64681L0.313662 4.64681L0.313661 6.64681ZM1.31366 10.9801L1.31366 5.64681L-0.686338 5.64681L-0.68634 10.9801H1.31366ZM5.64699 9.98015L0.31366 9.98014L0.313659 11.9801L5.64699 11.9801V9.98015ZM6.64699 16.3135V10.9801H4.64699V16.3135H6.64699ZM10.9803 15.3135H5.64699V17.3135H10.9803L10.9803 15.3135ZM9.98033 10.9801V16.3135H11.9803V10.9801H9.98033ZM16.3137 9.98015L10.9803 9.98015V11.9801L16.3137 11.9801V9.98015ZM15.3137 5.64681V10.9801L17.3137 10.9801V5.64681H15.3137ZM10.9803 6.64681L16.3137 6.64681V4.64681L10.9803 4.64681V6.64681ZM9.98033 0.313477V5.64681H11.9803V0.313477L9.98033 0.313477Z" fill="white" mask="url(#path-1-inside-1)"/>
</svg>
