<svg width="32" height="32" viewBox="0 0 32 32" fill="none" xmlns="http://www.w3.org/2000/svg">
<path fill-rule="evenodd" clip-rule="evenodd" d="M16 0C15.4477 0 15 0.447715 15 1V5C15 5.55228 15.4477 6 16 6C16.5523 6 17 5.55228 17 5V1C17 0.447715 16.5523 0 16 0ZM16 26C15.4477 26 15 26.4477 15 27V31C15 31.5523 15.4477 32 16 32C16.5523 32 17 31.5523 17 31V27C17 26.4477 16.5523 26 16 26ZM16 22C19.3137 22 22 19.3137 22 16C22 12.6863 19.3137 10 16 10C12.6863 10 10 12.6863 10 16C10 19.3137 12.6863 22 16 22ZM16 24C20.4183 24 24 20.4183 24 16C24 11.5817 20.4183 8 16 8C11.5817 8 8 11.5817 8 16C8 20.4183 11.5817 24 16 24ZM31 15C31.5523 15 32 15.4477 32 16C32 16.5523 31.5523 17 31 17H27C26.4477 17 26 16.5523 26 16C26 15.4477 26.4477 15 27 15H31ZM5 15C5.55228 15 6 15.4477 6 16C6 16.5523 5.55228 17 5 17H1C0.447716 17 0 16.5523 0 16C0 15.4477 0.447716 15 1 15H5ZM27.3137 27.3137C27.7042 26.9232 27.7042 26.29 27.3137 25.8995L24.4853 23.0711C24.0948 22.6805 23.4616 22.6805 23.0711 23.0711C22.6805 23.4616 22.6805 24.0948 23.0711 24.4853L25.8995 27.3137C26.29 27.7042 26.9232 27.7042 27.3137 27.3137ZM8.92893 8.92893C9.31945 8.5384 9.31945 7.90524 8.92893 7.51472L6.1005 4.68629C5.70998 4.29576 5.07681 4.29576 4.68629 4.68629C4.29577 5.07681 4.29577 5.70998 4.68629 6.1005L7.51472 8.92893C7.90524 9.31945 8.53841 9.31945 8.92893 8.92893ZM6.10048 27.3137C5.70995 27.7042 5.07679 27.7042 4.68626 27.3137C4.29574 26.9232 4.29574 26.29 4.68626 25.8995L7.51469 23.0711C7.90522 22.6805 8.53838 22.6805 8.9289 23.0711C9.31943 23.4616 9.31943 24.0948 8.92891 24.4853L6.10048 27.3137ZM24.4853 8.92893C24.0947 9.31945 23.4616 9.31945 23.071 8.92893C22.6805 8.5384 22.6805 7.90524 23.071 7.51472L25.8995 4.68629C26.29 4.29576 26.9232 4.29576 27.3137 4.68629C27.7042 5.07681 27.7042 5.70998 27.3137 6.1005L24.4853 8.92893Z" fill="black"/>
</svg>
